<?xml version="1.0" encoding="iso-8859-1"?>
<!-- Generator: Adobe Illustrator 16.0.0, SVG Export Plug-In . SVG Version: 6.00 Build 0)  -->
<!DOCTYPE svg PUBLIC "-//W3C//DTD SVG 1.1//EN" "http://www.w3.org/Graphics/SVG/1.1/DTD/svg11.dtd">
<svg xmlns="http://www.w3.org/2000/svg" xmlns:xlink="http://www.w3.org/1999/xlink" version="1.1" id="Capa_1" x="0px" y="0px" width="512px" height="512px" viewBox="0 0 62.256 62.256" style="enable-background:new 0 0 62.256 62.256;" xml:space="preserve">
<g>
	<g>
		<path d="M29,27.21h-4c-1.654,0-3,1.346-3,3v20.167c0,1.654,1.346,3,3,3h4c1.654,0,3-1.346,3-3V30.21    C32,28.556,30.654,27.21,29,27.21z M30,50.376c0,0.552-0.448,1-1,1h-4c-0.552,0-1-0.448-1-1V30.21c0-0.551,0.448-1,1-1h4    c0.552,0,1,0.449,1,1V50.376z" fill="#FFFFFF"/>
		<path d="M18,53.376c1.654,0,3-1.346,3-3V30.21c0-1.654-1.346-3-3-3h-4c-1.654,0-3,1.346-3,3v20.167c0,1.654,1.346,3,3,3h4V53.376z     M13,50.376V30.21c0-0.551,0.448-1,1-1h4c0.552,0,1,0.449,1,1v20.167c0,0.551-0.448,1-1,1h-4C13.448,51.376,13,50.929,13,50.376z" fill="#FFFFFF"/>
		<path d="M7,53.376c1.654,0,3-1.346,3-3V30.21c0-1.654-1.346-3-3-3H3c-1.654,0-3,1.346-3,3v20.167c0,1.654,1.346,3,3,3h4V53.376z     M2,50.376V30.21c0-0.551,0.448-1,1-1h4c0.552,0,1,0.449,1,1v20.167c0,0.551-0.448,1-1,1H3C2.448,51.376,2,50.929,2,50.376z" fill="#FFFFFF"/>
		<path d="M40.852,13.21c-0.553,0-1,0.448-1,1v8.427c-2.647,0.474-4.666,2.79-4.666,5.573c0,3.125,2.541,5.667,5.666,5.667    c2.782,0,5.099-2.018,5.572-4.667h3.26c0.553,0,1-0.448,1-1c0-0.552-0.447-1-1-1h-3.26c-0.416-2.323-2.25-4.156-4.572-4.573V14.21    C41.852,13.658,41.404,13.21,40.852,13.21z M44.518,28.21c0,2.021-1.645,3.667-3.666,3.667s-3.666-1.645-3.666-3.667    c0-2.021,1.645-3.667,3.666-3.667S44.518,26.189,44.518,28.21z" fill="#FFFFFF"/>
		<path d="M39.852,46.544c0,0.552,0.447,1,1,1c7.881,0,14.903-4.711,17.895-12.002c0.21-0.51-0.034-1.094-0.545-1.305    c-0.512-0.207-1.096,0.035-1.305,0.547c-2.683,6.535-8.979,10.76-16.045,10.76C40.299,45.544,39.852,45.991,39.852,46.544z" fill="#FFFFFF"/>
		<path d="M61.786,20.328c-0.47-0.294-1.085-0.15-1.378,0.317l-1.119,1.79c-2.508-8.01-9.986-13.557-18.438-13.557    c-9.029,0-16.771,6.132-18.825,14.912c-0.126,0.538,0.208,1.076,0.746,1.202c0.076,0.018,0.153,0.026,0.229,0.026    c0.454,0,0.865-0.311,0.973-0.772c1.842-7.871,8.782-13.368,16.878-13.368c7.705,0,14.517,5.139,16.646,12.519l-2.42-1.453    c-0.475-0.284-1.088-0.13-1.372,0.343c-0.284,0.473-0.131,1.088,0.343,1.372l4.126,2.478c0.054,0.032,0.109,0.05,0.165,0.071    c0.028,0.01,0.055,0.027,0.083,0.035c0.089,0.024,0.177,0.037,0.267,0.037c0.084,0,0.168-0.011,0.248-0.032    c0.03-0.008,0.061-0.024,0.09-0.035c0.049-0.017,0.098-0.032,0.144-0.057c0.034-0.019,0.063-0.045,0.095-0.068    c0.037-0.026,0.076-0.05,0.11-0.082c0.03-0.028,0.054-0.064,0.079-0.096c0.027-0.034,0.061-0.063,0.083-0.101l2.565-4.103    C62.396,21.238,62.254,20.621,61.786,20.328z" fill="#FFFFFF"/>
	</g>
</g>
<g>
</g>
<g>
</g>
<g>
</g>
<g>
</g>
<g>
</g>
<g>
</g>
<g>
</g>
<g>
</g>
<g>
</g>
<g>
</g>
<g>
</g>
<g>
</g>
<g>
</g>
<g>
</g>
<g>
</g>
</svg>
