<?xml version="1.0" encoding="UTF-8" standalone="no"?>
<svg
   xmlns:dc="http://purl.org/dc/elements/1.1/"
   xmlns:cc="http://creativecommons.org/ns#"
   xmlns:rdf="http://www.w3.org/1999/02/22-rdf-syntax-ns#"
   xmlns:svg="http://www.w3.org/2000/svg"
   xmlns="http://www.w3.org/2000/svg"
   xmlns:sodipodi="http://sodipodi.sourceforge.net/DTD/sodipodi-0.dtd"
   xmlns:inkscape="http://www.inkscape.org/namespaces/inkscape"
   width="544.2"
   height="544.2"
   viewBox="0 0 544.2 544.2"
   version="1.1"
   id="svg4590"
   sodipodi:docname="backup-icon.svg"
   inkscape:version="0.92.2 (5c3e80d, 2017-08-06)"
   inkscape:export-filename="C:\Users\andreanael\Downloads\Enupal\backup-icon.png"
   inkscape:export-xdpi="96"
   inkscape:export-ydpi="96">
  <metadata
     id="metadata4596">
    <rdf:RDF>
      <cc:Work
         rdf:about="">
        <dc:format>image/svg+xml</dc:format>
        <dc:type
           rdf:resource="http://purl.org/dc/dcmitype/StillImage" />
      </cc:Work>
    </rdf:RDF>
  </metadata>
  <defs
     id="defs4594" />
  <sodipodi:namedview
     pagecolor="#ffffff"
     bordercolor="#666666"
     borderopacity="1"
     objecttolerance="10"
     gridtolerance="10"
     guidetolerance="10"
     inkscape:pageopacity="0"
     inkscape:pageshadow="2"
     inkscape:window-width="1920"
     inkscape:window-height="1017"
     id="namedview4592"
     showgrid="false"
     showguides="false"
     inkscape:zoom="0.86732817"
     inkscape:cx="10.22179"
     inkscape:cy="253.22584"
     inkscape:window-x="-8"
     inkscape:window-y="25"
     inkscape:window-maximized="1"
     inkscape:current-layer="svg4590" />
  <ellipse
     style="opacity:1;fill:#58bbee;fill-opacity:1;fill-rule:nonzero;stroke:#75c181;stroke-width:0.58224231;stroke-linecap:round;stroke-linejoin:miter;stroke-miterlimit:4;stroke-dasharray:0.58224228, 0.58224228;stroke-dashoffset:0;stroke-opacity:1;paint-order:stroke markers fill"
     id="path5102"
     cx="272.10001"
     cy="272.67645"
     rx="269.80292"
     ry="270.37946" />
  <path
     id="path9984"
     d="m -355.53078,-11.497663 c -75.35383,61.000689 -122.58686,63.852779 -201.18195,63.852779 V 297.86904 c 0,97.97144 71.59842,123.53384 201.18195,201.45551 129.5835,-77.92167 201.18192,-103.48407 201.18192,-201.45551 V 52.355116 c -78.59507,0 -125.82811,-2.85209 -201.18192,-63.852779 z"
     inkscape:connector-curvature="0"
     style="fill:#ffffff;fill-opacity:1;stroke-width:21.81235123" />
  <path
     id="path10865"
     d="m 272.94145,93.943294 c -68.88915,0 -124.96692,53.971656 -128.61258,121.861496 -44.195,7.95571 -77.745361,46.49707 -77.745361,92.9254 0,52.18463 42.354961,94.50625 94.580721,94.50625 h 223.55444 c 52.22576,0 94.58072,-42.32162 94.58072,-94.50625 0,-46.42833 -33.55036,-84.96969 -77.74535,-92.9254 C 397.90838,147.91495 341.83061,93.943294 272.94145,93.943294 Z"
     inkscape:connector-curvature="0"
     style="fill:#ffffff;fill-opacity:1;stroke-width:17.18972206" />
  <path
     id="path10323"
     d="m 272.94145,221.94329 -89.68607,89.75638 48.00863,1.09517 -3.27053,91.72769 76.8138,1.75227 3.27053,-91.72768 48.00863,1.09516 z"
     inkscape:connector-curvature="0"
     style="fill:#58bbee;fill-opacity:1;stroke-width:8.57059193" />
</svg>
