<?xml version="1.0" encoding="UTF-8" standalone="no"?>
<svg
   xmlns:dc="http://purl.org/dc/elements/1.1/"
   xmlns:cc="http://creativecommons.org/ns#"
   xmlns:rdf="http://www.w3.org/1999/02/22-rdf-syntax-ns#"
   xmlns:svg="http://www.w3.org/2000/svg"
   xmlns="http://www.w3.org/2000/svg"
   xmlns:sodipodi="http://sodipodi.sourceforge.net/DTD/sodipodi-0.dtd"
   xmlns:inkscape="http://www.inkscape.org/namespaces/inkscape"
   width="544.2"
   height="544.2"
   viewBox="0 0 544.2 544.2"
   version="1.1"
   id="svg4590"
   sodipodi:docname="backup-icon.svg"
   inkscape:version="0.92.2 (5c3e80d, 2017-08-06)"
   inkscape:export-filename="C:\Users\andreanael\Downloads\Enupal\backup-icon.png"
   inkscape:export-xdpi="96"
   inkscape:export-ydpi="96">
  <metadata
     id="metadata4596">
    <rdf:RDF>
      <cc:Work
         rdf:about="">
        <dc:format>image/svg+xml</dc:format>
        <dc:type
           rdf:resource="http://purl.org/dc/dcmitype/StillImage" />
      </cc:Work>
    </rdf:RDF>
  </metadata>
  <defs
     id="defs4594" />
  <sodipodi:namedview
     pagecolor="#ffffff"
     bordercolor="#666666"
     borderopacity="1"
     objecttolerance="10"
     gridtolerance="10"
     guidetolerance="10"
     inkscape:pageopacity="0"
     inkscape:pageshadow="2"
     inkscape:window-width="1920"
     inkscape:window-height="1017"
     id="namedview4592"
     showgrid="false"
     showguides="false"
     inkscape:zoom="0.86732817"
     inkscape:cx="10.22179"
     inkscape:cy="253.22584"
     inkscape:window-x="-8"
     inkscape:window-y="26"
     inkscape:window-maximized="1"
     inkscape:current-layer="svg4590" />
  <path
     id="path9984"
     d="M 268.2239,4.6438634 C 187.25602,68.260536 136.50401,71.234937 52.053382,71.234937 V 327.27761 c 0,102.1729 76.932688,128.83152 216.170518,210.09483 C 407.4617,456.10913 484.39438,429.45051 484.39438,327.27761 V 71.234937 c -84.4506,0 -135.20262,-2.974401 -216.17048,-66.5910736 z"
     inkscape:connector-curvature="0"
     style="fill:#8a40a7;fill-opacity:1;stroke-width:23.09001923" />
  <path
     id="path10865"
     d="m 268.02365,136.60304 c -52.72342,0 -95.64181,44.11322 -98.43197,99.60234 -33.82406,6.50252 -59.50139,38.00393 -59.50139,75.95169 0,42.65261 32.41582,77.24378 72.38612,77.24378 h 171.09448 c 39.9703,0 72.38612,-34.59117 72.38612,-77.24378 0,-37.94776 -25.67733,-69.44917 -59.50139,-75.95169 -2.79016,-55.48912 -45.70855,-99.60234 -98.43197,-99.60234 z"
     inkscape:connector-curvature="0"
     style="fill:#ffffff;stroke-width:13.59554768" />
  <path
     id="path10323"
     d="m 274.67916,206.63356 -89.68607,112.21289 48.00863,1.36917 -3.27053,114.67742 76.8138,2.19068 3.27053,-114.67741 48.00863,1.36917 z"
     inkscape:connector-curvature="0"
     style="fill:#8a40a7;stroke-width:9.58295631;fill-opacity:1" />
</svg>
