<?xml version="1.0" encoding="UTF-8" standalone="no"?>
<svg
   xmlns:dc="http://purl.org/dc/elements/1.1/"
   xmlns:cc="http://creativecommons.org/ns#"
   xmlns:rdf="http://www.w3.org/1999/02/22-rdf-syntax-ns#"
   xmlns:svg="http://www.w3.org/2000/svg"
   xmlns="http://www.w3.org/2000/svg"
   xmlns:sodipodi="http://sodipodi.sourceforge.net/DTD/sodipodi-0.dtd"
   xmlns:inkscape="http://www.inkscape.org/namespaces/inkscape"
   width="544.2"
   height="544.2"
   viewBox="0 0 544.2 544.2"
   version="1.1"
   id="svg4590"
   sodipodi:docname="backup-icon.svg"
   inkscape:version="0.92.2 (5c3e80d, 2017-08-06)">
  <metadata
     id="metadata4596">
    <rdf:RDF>
      <cc:Work
         rdf:about="">
        <dc:format>image/svg+xml</dc:format>
        <dc:type
           rdf:resource="http://purl.org/dc/dcmitype/StillImage" />
      </cc:Work>
    </rdf:RDF>
  </metadata>
  <defs
     id="defs4594" />
  <sodipodi:namedview
     pagecolor="#ffffff"
     bordercolor="#666666"
     borderopacity="1"
     objecttolerance="10"
     gridtolerance="10"
     guidetolerance="10"
     inkscape:pageopacity="0"
     inkscape:pageshadow="2"
     inkscape:window-width="1920"
     inkscape:window-height="1017"
     id="namedview4592"
     showgrid="false"
     showguides="false"
     inkscape:zoom="0.86732817"
     inkscape:cx="222.94404"
     inkscape:cy="253.22584"
     inkscape:window-x="-8"
     inkscape:window-y="26"
     inkscape:window-maximized="1"
     inkscape:current-layer="svg4590" />
  <path
     id="path9000"
     d="m 269.65419,79.534134 c 75.41574,0 128.66322,62.806636 121.58685,152.244926 38.11193,-1.03293 96.81958,16.86369 96.81958,83.5326 0,43.33815 -34.28981,78.5925 -76.44226,78.5925 H 127.69002 c -42.152443,0 -76.442251,-35.25435 -76.442251,-78.5925 0,-62.80664 54.142961,-86.07002 96.819561,-83.5326 -3.64738,-94.71521 48.22415,-152.244926 121.58686,-152.244926 z m 0,-44.910004 c -87.49361,0 -158.71594,70.53116 -163.34616,159.25087 -56.130452,10.39666 -98.7415463,60.76324 -98.7415463,121.43666 0,68.19584 53.7935033,123.50251 120.1235363,123.50251 h 283.92834 c 66.33005,0 120.12354,-55.30667 120.12354,-123.50251 0,-60.67342 -42.61109,-111.04 -98.74154,-121.43666 C 428.37014,105.15529 357.1478,34.62413 269.65419,34.62413 Z"
     inkscape:connector-curvature="0"
     style="fill:#ffffff;stroke-width:22.14569092" />
  <path
     id="path9984"
     d="M 268.2239,4.6438634 C 187.25602,68.260536 136.50401,71.234937 52.053382,71.234937 V 327.27761 c 0,102.1729 76.932688,128.83152 216.170518,210.09483 C 407.4617,456.10913 484.39438,429.45051 484.39438,327.27761 V 71.234937 c -84.4506,0 -135.20262,-2.974401 -216.17048,-66.5910736 z"
     inkscape:connector-curvature="0"
     style="fill:#8a40a7;fill-opacity:1;stroke-width:23.09001923" />
  <path
     id="path10865"
     d="m 268.02365,136.60304 c -52.72342,0 -95.64181,44.11322 -98.43197,99.60234 -33.82406,6.50252 -59.50139,38.00393 -59.50139,75.95169 0,42.65261 32.41582,77.24378 72.38612,77.24378 h 171.09448 c 39.9703,0 72.38612,-34.59117 72.38612,-77.24378 0,-37.94776 -25.67733,-69.44917 -59.50139,-75.95169 -2.79016,-55.48912 -45.70855,-99.60234 -98.43197,-99.60234 z"
     inkscape:connector-curvature="0"
     style="fill:#ffffff;stroke-width:13.59554768" />
  <path
     id="path10323"
     d="m 274.67916,206.63356 -89.68607,112.21289 48.00863,1.36917 -3.27053,114.67742 76.8138,2.19068 3.27053,-114.67741 48.00863,1.36917 z"
     inkscape:connector-curvature="0"
     style="fill:#8a40a7;stroke-width:9.58295631;fill-opacity:1" />
</svg>
